<svg width="221" height="184" viewBox="0 0 221 184" fill="none" xmlns="http://www.w3.org/2000/svg" fill="#fff">
<path d="M113 184C162.706 184 203 143.929 203 94.5C203 45.0705 162.706 5 113 5C63.2944 5 23 45.0705 23 94.5C23 143.929 63.2944 184 113 184Z" fill="white"/>
<path d="M200.5 94.5C200.5 142.549 161.549 181.5 113.5 181.5C65.4512 181.5 26.5 142.549 26.5 94.5C26.5 46.4512 65.4512 7.5 113.5 7.5C161.549 7.5 200.5 46.4512 200.5 94.5Z" fill="#212121" stroke="#643737"/>
<mask id="mask0" mask-type="alpha" maskUnits="userSpaceOnUse" x="17" y="1" width="190" height="131">
<path d="M39 127L32 126L22.5 123L17 55.5L44.5 13L124 1L206.5 11V111L196.5 128.5L190.5 129L185 129.5L178 130L164 131L153.5 131.5L134 132H130.5H118.5H107L94 131.5L86 131L76.5 130.5L64 129.5L52.5 128.5L39 127Z" fill="url(#paint0_linear)"/>
</mask>
<g mask="url(#mask0)">
<path d="M113.5 182C161.825 182 201 142.825 201 94.5C201 46.1751 161.825 7 113.5 7C65.1751 7 26 46.1751 26 94.5C26 142.825 65.1751 182 113.5 182Z" fill="url(#paint1_linear)"/>
</g>
<path d="M109.203 107.902L129.783 74.2925C130.393 73.2962 131.712 73.0108 132.679 73.6657L134.67 75.0131C135.59 75.6364 135.846 76.8804 135.246 77.8165L113.971 110.973C113.345 111.949 112.036 112.212 111.082 111.553L109.786 110.658C108.891 110.04 108.635 108.83 109.203 107.902Z" fill="#E19974"/>
<path d="M113.934 111.032L135.198 77.8911C135.817 76.9262 137.108 76.657 138.061 77.2941L140.776 79.1085C141.734 79.7488 141.976 81.0528 141.311 81.9941L118.61 114.139C117.978 115.035 116.754 115.274 115.831 114.683L114.553 113.864C113.6 113.253 113.323 111.985 113.934 111.032Z" fill="#E19974"/>
<path d="M135.246 77.8168L113.972 110.974C113.345 111.948 112.036 112.212 111.083 111.553L109.786 110.659C109.358 110.363 109.076 109.933 108.96 109.462L109.109 109.56C110.075 110.202 111.379 109.915 111.987 108.93L132.671 75.4003C132.972 74.9104 133.043 74.3435 132.912 73.8238L134.671 75.0137C135.591 75.6366 135.846 76.8806 135.246 77.8168Z" fill="#DC8758"/>
<path d="M141.311 81.9934L118.61 114.139C117.978 115.035 116.754 115.274 115.832 114.683L114.552 113.864C114.106 113.577 113.807 113.145 113.679 112.669C114.595 113.157 115.741 112.881 116.332 112.013L138.459 79.4684C138.817 78.9416 138.896 78.3083 138.731 77.7415L140.775 79.108C141.734 79.7485 141.975 81.0519 141.311 81.9934Z" fill="#DC8758"/>
<path d="M126.651 116.705C126.405 115.306 125.684 114.11 124.683 113.252C123.981 112.65 123.649 111.738 123.8 110.825C124.015 109.525 123.798 108.145 123.088 106.915C122.378 105.685 121.291 104.808 120.058 104.344C119.192 104.018 118.568 103.274 118.398 102.365C118.155 101.07 117.48 99.8477 116.392 98.9346C115.303 98.0216 113.982 97.5688 112.665 97.5548C111.74 97.545 110.899 97.0594 110.428 96.2631C109.757 95.129 108.704 94.2116 107.369 93.7257C106.034 93.2398 104.638 93.2661 103.395 93.7036C102.523 94.0107 101.566 93.842 100.851 93.255C99.8329 92.4189 98.5302 91.9167 97.1097 91.9167C95.6892 91.9167 94.3863 92.4189 93.368 93.255C92.653 93.8422 91.6967 94.0108 90.8239 93.7036C89.581 93.2661 88.185 93.2398 86.85 93.7257C85.515 94.2116 84.4626 95.129 83.7916 96.2631C83.3204 97.0594 82.4794 97.545 81.5544 97.5548C80.2368 97.5688 78.916 98.0216 77.8278 98.9346C76.7397 99.8479 76.0645 101.07 75.8219 102.365C75.6515 103.274 75.0273 104.018 74.1614 104.344C72.9281 104.808 71.8418 105.685 71.1314 106.915C70.4211 108.146 70.2046 109.525 70.4195 110.825C70.5705 111.738 70.2383 112.65 69.5359 113.252C68.5356 114.11 67.8148 115.306 67.5681 116.705H126.651Z" fill="#FEF1DA"/>
<path d="M124.683 113.252C123.981 112.65 123.649 111.738 123.8 110.825C124.015 109.525 123.798 108.146 123.087 106.914C122.377 105.684 121.292 104.808 120.059 104.344C119.192 104.018 118.568 103.275 118.398 102.365C118.155 101.07 117.479 99.8472 116.391 98.9338C115.303 98.0203 113.982 97.569 112.664 97.5549C111.74 97.5444 110.899 97.0598 110.428 96.2619C109.756 95.1281 108.705 94.2112 107.37 93.7248C106.035 93.2401 104.638 93.2664 103.396 93.7037C102.523 94.01 101.566 93.8419 100.852 93.2541C99.8337 92.4178 98.5303 91.9156 97.1096 91.9156C95.6889 91.9156 94.387 92.4178 93.3688 93.2541C93.3547 93.2664 93.339 93.2769 93.325 93.2892C93.346 93.2874 93.367 93.2874 93.3879 93.2874C95.0675 93.2874 97.2375 94.3195 98.5648 95.2962C99.8305 96.2275 100.991 96.6833 102.573 96.4047C103.729 96.2012 104.977 96.1357 106.105 96.5132C106.664 96.7004 107.215 97.0054 107.616 97.4456C108.027 97.8978 108.231 98.5423 108.631 99.0228C109.062 99.5413 109.669 99.8067 110.32 99.9282C110.768 100.012 111.223 99.9956 111.675 100.043C112.691 100.151 113.587 100.787 114.186 101.587C114.723 102.305 114.908 103.204 115.025 104.074C115.138 104.917 115.493 105.396 116.337 105.714C117.569 106.178 118.656 107.056 119.366 108.286C120.076 109.516 120.293 110.895 120.078 112.195C119.928 113.108 120.26 114.02 120.962 114.623C121.616 115.185 122.152 115.89 122.512 116.704H126.652C126.405 115.306 125.684 114.109 124.683 113.252Z" fill="#FAE2C0"/>
<path d="M98.2163 150.158H83.3017L84.4046 159.261C84.4857 159.93 85.0542 160.434 85.7287 160.434H98.2163H108.491C109.165 160.434 109.734 159.93 109.815 159.261L110.918 150.158H98.2163Z" fill="#554E56"/>
<path d="M110.918 150.158L109.814 159.26C109.734 159.93 109.165 160.434 108.491 160.434H104.705C105.38 160.434 105.949 159.93 106.029 159.26L107.134 150.158H110.918Z" fill="#433F43"/>
<path d="M128.899 117.473C128.889 117.045 128.539 116.705 128.111 116.705H98.2162H66.1081C65.6801 116.705 65.3298 117.045 65.3199 117.473C65.2513 120.381 65.5092 131.025 72.2559 140.43C84.9532 158.13 109.266 158.13 121.963 140.43C128.71 131.025 128.968 120.381 128.899 117.473Z" fill="#7A6D79"/>
<path d="M121.964 140.43C115.182 149.884 105.088 154.288 95.218 153.642C103.827 153.08 112.265 148.676 118.179 140.43C124.925 131.025 125.184 120.38 125.115 117.472C125.105 117.045 124.755 116.704 124.326 116.704H128.111C128.54 116.704 128.889 117.045 128.9 117.472C128.968 120.38 128.711 131.025 121.964 140.43Z" fill="#685E68"/>
<path d="M128.497 123.648C128.181 125.863 127.632 128.457 126.69 131.196H67.5294C66.5874 128.457 66.0377 125.863 65.7218 123.648H128.497Z" fill="#FD9468"/>
<path d="M128.492 123.648C128.212 125.511 127.831 127.343 127.325 129.172C127.28 129.337 127.231 129.503 127.18 129.671C127.03 130.173 126.867 130.681 126.69 131.195H122.904C123.847 128.455 124.396 125.862 124.711 123.649C124.723 123.563 128.131 123.653 128.494 123.638C128.493 123.641 128.493 123.645 128.492 123.648Z" fill="#FE7D43"/>
<path d="M142.943 80.199C142.776 79.3001 142.265 78.5252 141.505 78.0174L138.79 76.2028C138.169 75.7879 137.446 75.5993 136.714 75.6463C136.488 74.9707 136.046 74.3607 135.405 73.9267L133.415 72.5793C132.647 72.0597 131.725 71.8816 130.82 72.0776C129.914 72.2736 129.148 72.817 128.664 73.6073L125.532 78.7222C125.154 79.3404 125.348 80.1483 125.966 80.5268C126.584 80.9052 127.392 80.7108 127.77 80.0929L130.902 74.9781C131.046 74.7444 131.26 74.6676 131.375 74.6427C131.49 74.6182 131.717 74.5987 131.944 74.7528L133.934 76.1002C134.268 76.3262 134.359 76.7688 134.141 77.1081L119.158 100.46C118.715 99.4906 118.06 98.6219 117.235 97.9295C117.15 97.8582 117.063 97.7893 116.976 97.7224L124.595 85.2791C124.973 84.6609 124.779 83.853 124.161 83.4745C123.543 83.0961 122.735 83.2903 122.357 83.9084L114.625 96.535C113.996 96.3506 113.341 96.2498 112.679 96.2426C112.214 96.2377 111.794 95.9954 111.557 95.5952C110.71 94.1639 109.383 93.062 107.818 92.4927C106.254 91.9233 104.529 91.9137 102.96 92.4659C102.521 92.6201 102.044 92.5365 101.684 92.241C100.399 91.1856 98.7746 90.6043 97.1099 90.6043C95.4452 90.6043 93.8204 91.1854 92.5354 92.241C92.1757 92.5365 91.6988 92.6203 91.2597 92.4659C89.6912 91.9135 87.9657 91.9235 86.4014 92.4927C84.8372 93.062 83.5092 94.1639 82.6624 95.5951C82.4254 95.9956 82.0061 96.2377 81.5406 96.2426C79.8778 96.2603 78.2597 96.8594 76.9843 97.9295C75.7091 98.9995 74.8381 100.489 74.5321 102.124C74.4464 102.581 74.1351 102.952 73.6995 103.116C72.1429 103.701 70.8274 104.818 69.995 106.259C69.1625 107.701 68.8535 109.398 69.1249 111.039C69.2008 111.498 69.0351 111.953 68.6817 112.257C67.7042 113.095 66.9727 114.183 66.5574 115.393H66.1082C64.9578 115.393 64.0352 116.293 64.0079 117.442C63.9343 120.564 64.2349 131.5 71.1896 141.196C74.1947 145.385 77.9162 148.719 82.0894 151.064L83.1018 159.419C83.2626 160.746 84.392 161.747 85.7287 161.747H108.491C109.827 161.747 110.957 160.746 111.117 159.419L112.13 151.064C116.303 148.719 120.025 145.385 123.03 141.196C129.985 131.5 130.285 120.563 130.211 117.442C130.184 116.293 129.262 115.393 128.111 115.393H127.662C127.247 114.183 126.515 113.095 125.537 112.257C125.184 111.954 125.018 111.498 125.094 111.039C125.285 109.888 125.188 108.71 124.827 107.611L142.383 82.7508C142.91 82.0041 143.109 81.0978 142.943 80.199ZM70.3901 114.249C71.446 113.343 71.941 111.983 71.714 110.61C71.5391 109.552 71.7305 108.502 72.2676 107.571C72.8048 106.641 73.6192 105.949 74.6231 105.572C75.9251 105.082 76.8553 103.974 77.1114 102.606C77.309 101.552 77.8483 100.63 78.6711 99.9395C79.4941 99.2491 80.4959 98.8778 81.5684 98.8666C82.9595 98.8515 84.2128 98.1281 84.9211 96.9308C85.4672 96.0077 86.2894 95.3258 87.2989 94.9584C88.3084 94.591 89.3767 94.5851 90.3881 94.9409C91.7 95.4033 93.1256 95.1519 94.2008 94.2687C95.0296 93.588 96.0354 93.2284 97.1097 93.2284C98.184 93.2284 99.1898 93.588 100.019 94.2687C101.094 95.1518 102.519 95.4035 103.831 94.9409C104.843 94.5853 105.911 94.591 106.921 94.9584C107.93 95.3258 108.752 96.0077 109.298 96.9309C110.007 98.128 111.26 98.8515 112.651 98.8666C113.723 98.8778 114.725 99.2491 115.548 99.9395C116.371 100.63 116.91 101.552 117.108 102.606C117.364 103.974 118.294 105.082 119.596 105.572C120.6 105.949 121.414 106.641 121.952 107.571C122.489 108.502 122.68 109.552 122.505 110.61C122.278 111.983 122.773 113.343 123.829 114.249C124.217 114.581 124.541 114.966 124.793 115.392H69.4265C69.6788 114.966 70.002 114.581 70.3901 114.249ZM108.512 159.103C108.511 159.114 108.502 159.122 108.491 159.122H85.7287C85.7178 159.122 85.7085 159.114 85.7073 159.103L84.9027 152.464C88.7271 154.133 92.8544 155.018 97.1095 155.018C101.365 155.018 105.492 154.133 109.316 152.464L108.512 159.103ZM125.741 129.884H85.5017C84.7769 129.884 84.1893 130.471 84.1893 131.196C84.1893 131.921 84.7769 132.508 85.5017 132.508H124.803C123.853 134.874 122.587 137.31 120.897 139.665C115.095 147.754 106.424 152.393 97.1095 152.393C87.7948 152.393 79.1244 147.754 73.3221 139.665C71.6321 137.31 70.3661 134.874 69.4157 132.508H79.3143C80.0391 132.508 80.6264 131.921 80.6264 131.196C80.6264 130.471 80.0389 129.884 79.3143 129.884H68.4779C67.973 128.289 67.5664 126.641 67.2628 124.961H126.956C126.653 126.641 126.246 128.289 125.741 129.884ZM127.595 118.017C127.599 119.008 127.555 120.505 127.346 122.336H66.8729C66.6644 120.505 66.6202 119.008 66.6246 118.017H127.595ZM140.239 81.2368L123.388 105.099C122.622 104.23 121.652 103.55 120.562 103.132L136.302 78.5995C136.41 78.4317 136.577 78.3169 136.772 78.2763C136.967 78.2358 137.166 78.2741 137.332 78.3848L140.047 80.1991C140.213 80.3105 140.325 80.4803 140.362 80.6775C140.398 80.8747 140.355 81.0731 140.239 81.2368Z" fill="#333333"/>
<path d="M97.9637 100.444C98.9233 100.348 99.6238 99.4931 99.5283 98.5335C99.4328 97.574 98.5775 96.8735 97.618 96.9689C96.6584 97.0644 95.9579 97.9197 96.0534 98.8793C96.1488 99.8389 97.0041 100.539 97.9637 100.444Z" fill="black"/>
<path d="M103.232 105.923C104.197 105.923 104.979 105.141 104.979 104.177C104.979 103.213 104.197 102.431 103.232 102.431C102.268 102.431 101.486 103.213 101.486 104.177C101.486 105.141 102.268 105.923 103.232 105.923Z" fill="black"/>
<path d="M82.0759 105.681C81.1115 105.681 80.3297 106.463 80.3297 107.427C80.3297 108.392 81.1115 109.173 82.0759 109.173C83.0403 109.173 83.8221 108.392 83.8221 107.427C83.8221 106.463 83.0403 105.681 82.0759 105.681Z" fill="black"/>
<path d="M111.917 107.427C110.952 107.427 110.17 108.209 110.17 109.173C110.17 110.138 110.952 110.92 111.917 110.92C112.881 110.92 113.663 110.138 113.663 109.173C113.663 108.209 112.881 107.427 111.917 107.427Z" fill="black"/>
<path d="M159.656 142V146.82C159.656 147.467 159.456 148.097 159.082 148.625C158.709 149.153 158.181 149.552 157.571 149.767L146.375 153.719V150.314L155.494 147.058C155.798 146.949 156.06 146.75 156.246 146.486C156.432 146.223 156.531 145.909 156.531 145.586V143.562C156.531 143.148 156.367 142.751 156.074 142.458C155.781 142.165 155.383 142 154.969 142H146.375V138.875H156.531C157.36 138.875 158.155 139.204 158.741 139.79C159.327 140.376 159.656 141.171 159.656 142Z" fill="#D9DBDD"/>
<path d="M142.28 159.188H126.844C116.028 151.375 118.25 134.969 118.25 134.969H150.874C150.874 134.969 153.096 151.375 142.28 159.188Z" fill="#E1E1E1"/>
<path d="M150.966 141.219C150.571 146.695 148.779 154.493 142.28 159.188H126.844C120.345 154.493 118.553 146.695 118.158 141.219H150.966Z" fill="url(#paint2_radial)"/>
<path d="M158.875 158.406C158.875 158.406 158.875 164.656 151.844 164.656H122.156C115.125 164.656 115.125 158.406 115.125 158.406H158.875Z" fill="#554E56"/>
<path d="M142.469 147.469V155.281H136.219V147.469L139.344 144.344L142.469 147.469Z" fill="#FF6464"/>
<path d="M156.531 138.094H151.843C151.839 137.014 151.774 135.936 151.648 134.864C151.623 134.677 151.531 134.505 151.388 134.38C151.246 134.256 151.063 134.187 150.874 134.188H118.438C118.249 134.187 118.067 134.256 117.924 134.38C117.782 134.505 117.689 134.677 117.664 134.864C117.642 135.025 117.137 138.869 117.833 143.77C118.243 146.66 118.989 149.314 120.05 151.661C121.028 153.864 122.38 155.882 124.045 157.625H115.125C114.918 157.625 114.719 157.707 114.573 157.854C114.426 158 114.344 158.199 114.344 158.406C114.391 159.636 114.726 160.838 115.323 161.914C116.227 163.522 118.146 165.438 122.156 165.438H151.844C155.854 165.438 157.773 163.522 158.677 161.914C159.274 160.838 159.609 159.636 159.656 158.406C159.656 158.199 159.574 158 159.427 157.854C159.281 157.707 159.082 157.625 158.875 157.625H145.268C146.339 156.511 147.278 155.278 148.067 153.95L157.831 150.504C158.593 150.234 159.252 149.735 159.719 149.076C160.186 148.416 160.437 147.628 160.438 146.82V142C160.436 140.964 160.024 139.971 159.292 139.239C158.56 138.507 157.567 138.095 156.531 138.094ZM151.479 143.77C151.527 143.435 151.569 143.106 151.605 142.781H154.969C155.176 142.781 155.374 142.864 155.521 143.01C155.667 143.157 155.75 143.355 155.75 143.562V145.586C155.75 145.747 155.7 145.905 155.607 146.036C155.514 146.168 155.383 146.268 155.231 146.322L150.598 147.977C150.986 146.596 151.281 145.191 151.479 143.77ZM140.125 135.75H150.169C150.294 137.309 150.315 138.875 150.231 140.438H140.125V135.75ZM119.144 135.75H138.562V140.438H119.082C118.999 138.875 119.019 137.309 119.144 135.75ZM139.344 145.449L141.688 147.792V154.5H137V147.792L139.344 145.449ZM158.005 159.188C157.885 159.875 157.652 160.537 157.315 161.148C156.297 162.958 154.457 163.875 151.844 163.875H122.156C119.568 163.875 117.737 162.974 116.713 161.198C116.361 160.574 116.118 159.894 115.994 159.188H158.005ZM147.839 151.017C146.641 153.665 145.012 155.886 142.996 157.625H126.316C124.306 155.891 122.68 153.677 121.483 151.039C120.484 148.833 119.778 146.328 119.386 143.592C119.308 143.048 119.246 142.516 119.197 142H138.562V144.02L135.666 146.916C135.594 146.989 135.536 147.075 135.497 147.17C135.458 147.265 135.437 147.366 135.438 147.469V155.281C135.438 155.488 135.52 155.687 135.666 155.834C135.813 155.98 136.012 156.062 136.219 156.062H142.469C142.676 156.062 142.875 155.98 143.021 155.834C143.168 155.687 143.25 155.488 143.25 155.281V147.469C143.25 147.366 143.23 147.265 143.191 147.17C143.151 147.075 143.094 146.989 143.021 146.916L140.125 144.02V142H150.116C150.068 142.502 150.008 143.021 149.932 143.551C149.543 146.294 148.839 148.806 147.839 151.017ZM158.875 146.82C158.874 147.305 158.724 147.778 158.444 148.173C158.164 148.569 157.768 148.869 157.311 149.03L149.145 151.913C149.184 151.829 149.224 151.746 149.262 151.661C149.527 151.076 149.771 150.473 149.996 149.851L155.757 147.794C156.212 147.63 156.605 147.331 156.884 146.936C157.162 146.541 157.312 146.07 157.312 145.587V143.562C157.312 142.941 157.065 142.345 156.625 141.906C156.186 141.467 155.59 141.219 154.969 141.219H151.749C151.788 140.673 151.813 140.151 151.828 139.656H156.531C157.153 139.657 157.748 139.904 158.188 140.344C158.627 140.783 158.874 141.379 158.875 142V146.82Z" fill="#333333"/>
<path d="M135.649 119.966C135.812 119.841 135.919 119.656 135.946 119.452C135.974 119.248 135.92 119.041 135.796 118.877C135.672 118.713 135.488 118.604 135.285 118.575C135.081 118.545 134.874 118.597 134.708 118.719C134.06 119.248 133.543 119.919 133.196 120.681C132.673 121.831 132.341 123.687 133.726 125.996C135.705 129.295 133.916 131.216 133.843 131.291C133.77 131.364 133.712 131.45 133.672 131.545C133.632 131.64 133.611 131.742 133.611 131.845C133.611 131.948 133.631 132.05 133.67 132.145C133.709 132.24 133.767 132.327 133.84 132.4C133.913 132.472 133.999 132.53 134.094 132.569C134.19 132.609 134.292 132.629 134.395 132.628C134.498 132.628 134.599 132.607 134.694 132.568C134.789 132.528 134.876 132.469 134.948 132.396C135.061 132.283 137.693 129.571 135.065 125.192C134.246 123.827 134.088 122.545 134.594 121.382C134.833 120.836 135.194 120.352 135.649 119.966Z" fill="#333333"/>
<path d="M125.834 121.916C125.761 121.844 125.675 121.786 125.58 121.747C125.485 121.708 125.384 121.687 125.281 121.687C125.179 121.687 125.077 121.708 124.982 121.747C124.887 121.786 124.801 121.844 124.729 121.916C124.25 122.423 123.886 123.027 123.661 123.687C123.324 124.697 123.236 126.216 124.729 127.709C126.451 129.431 124.908 131.109 124.729 131.291C124.582 131.438 124.5 131.637 124.5 131.844C124.5 132.051 124.582 132.25 124.729 132.396C124.875 132.543 125.074 132.625 125.281 132.625C125.488 132.625 125.687 132.543 125.834 132.396C126.312 131.89 126.677 131.286 126.901 130.626C127.238 129.615 127.327 128.097 125.834 126.604C124.111 124.881 125.655 123.204 125.837 123.018C125.982 122.872 126.063 122.673 126.063 122.467C126.062 122.26 125.98 122.062 125.834 121.916Z" fill="#333333"/>
<path d="M144.584 121.916C144.511 121.844 144.425 121.786 144.33 121.747C144.235 121.708 144.134 121.687 144.031 121.687C143.929 121.687 143.827 121.708 143.732 121.747C143.637 121.786 143.551 121.844 143.479 121.916C143 122.423 142.636 123.027 142.411 123.687C142.074 124.697 141.986 126.216 143.479 127.709C145.201 129.431 143.658 131.109 143.479 131.291C143.332 131.438 143.25 131.637 143.25 131.844C143.25 132.051 143.332 132.25 143.479 132.396C143.625 132.543 143.824 132.625 144.031 132.625C144.238 132.625 144.437 132.543 144.584 132.396C145.062 131.889 145.427 131.286 145.651 130.626C145.988 129.615 146.077 128.097 144.584 126.604C142.861 124.881 144.405 123.204 144.587 123.018C144.732 122.872 144.813 122.673 144.813 122.467C144.812 122.26 144.73 122.062 144.584 121.916Z" fill="#333333"/>
<path d="M19.97 1.70032C31.2801 1.70032 38.77 6.93894 38.77 17.8928C38.77 22.4409 37.4751 26.0007 35.1552 28.6125C35.6981 31.1905 36.435 33.5767 37.2143 34.9538C37.555 35.5558 36.9986 36.3031 36.3312 36.1212L36.3105 36.1156C34.4253 35.5831 32.0795 34.1613 29.7747 32.3565C27.0078 33.5123 23.6985 34.0852 19.97 34.0852C8.65991 34.0852 1.16999 28.8466 1.16999 17.8928C1.16999 6.93941 8.65991 1.70032 19.97 1.70032Z" fill="#FF6464" stroke="#333333" stroke-width="1.88" stroke-miterlimit="10"/>
<path d="M12.1638 19.7709L12.1943 19.7568C13.0694 19.4297 13.2372 19.4024 13.3256 19.4024C13.3989 19.4024 13.5601 19.4127 14.1086 19.5053C14.7426 19.628 15.5745 19.7441 16.5907 19.8522C16.5665 19.8203 16.5428 19.788 16.5197 19.7554C16.2669 19.4513 15.9661 18.9042 15.5999 18.0794C15.0855 18.0162 14.5677 17.9837 14.0494 17.9821C13.5705 17.9821 13.2636 17.9506 13.123 17.8942C12.6385 17.8053 12.5656 17.5224 12.5656 17.3617C12.5656 17.1464 12.7611 16.9702 13.2631 16.7309L13.2664 16.7295C13.671 16.5439 13.9465 16.4574 14.1326 16.4574C14.1838 16.4574 14.2538 16.4687 14.4494 16.5246C14.5781 16.5547 14.777 16.5993 15.0453 16.6576C14.8898 16.4123 14.8258 16.2637 14.8258 16.1462C14.8258 15.8769 15.0303 15.6189 15.4693 15.335L15.4749 15.3317C15.6129 15.2458 15.7577 15.1711 15.9078 15.1085C15.6799 15.0753 15.4533 15.0334 15.2286 14.983C14.9668 14.9416 14.4226 14.8561 14.4226 14.4871C14.4226 14.3085 14.5105 14.0576 14.9264 13.8738C15.3297 13.6703 15.6582 13.5711 15.9285 13.5711C15.9952 13.5711 16.1259 13.5815 16.4812 13.6689C16.8473 13.7483 17.2783 13.8268 17.7704 13.9034C17.7159 13.8437 17.6548 13.7723 17.5857 13.6863C17.3338 13.4137 17.0428 12.9634 16.7011 12.3125L16.6001 12.2984C15.9682 12.2162 15.3319 12.1736 14.6947 12.171C14.2158 12.171 13.9089 12.14 13.7674 12.0831C13.2838 11.9943 13.2109 11.7113 13.2109 11.5506C13.2109 11.3353 13.4064 11.1586 13.9079 10.9203L13.9117 10.9189C14.3168 10.7328 14.5922 10.6463 14.7784 10.6463C14.8291 10.6463 14.9039 10.6576 15.1074 10.713C15.2911 10.7539 15.6089 10.8207 16.0601 10.9128C15.9867 10.7375 15.9129 10.5659 15.8415 10.4038C15.6046 10.0734 15.5722 9.94083 15.5722 9.84636C15.5722 9.56248 15.7907 9.288 16.2598 8.98391L16.2659 8.98016C16.6555 8.74328 16.9709 8.62766 17.2299 8.62766C17.3775 8.62766 17.7304 8.68358 17.8103 9.20152L17.8179 9.24758L17.8066 9.29317C17.7314 9.60337 17.7154 9.74719 17.7154 9.81346C17.7154 10.1204 17.7685 10.5584 17.8714 11.1083L17.9081 11.2676C18.4204 11.3534 18.9335 11.4344 19.4473 11.5106C19.7989 11.5473 19.9775 11.6761 19.9775 11.8937C19.9775 12.1254 19.7322 12.2753 19.4699 12.4022C19.0145 12.6297 18.8349 12.6588 18.7297 12.6588C18.6592 12.6588 18.5694 12.6396 18.4603 12.6029C18.4016 12.5893 18.3306 12.5742 18.2474 12.5583C18.3513 12.9235 18.4683 13.3145 18.5976 13.7295L18.6079 13.7995C18.6079 13.8705 18.5877 13.9471 18.5351 14.0143C18.7658 14.0453 19.0074 14.0764 19.2589 14.1069C20.1481 14.223 21.003 14.3222 21.8161 14.4025C21.7198 14.2789 21.6507 14.0914 21.6103 13.8362C21.6103 13.7643 21.6328 13.542 21.7701 12.625L20.6905 12.3176C20.5575 12.2824 20.1523 12.1747 20.1523 11.8486C20.1523 11.6704 20.2459 11.3715 20.8714 11.3715C20.9481 11.3715 21.0618 11.3856 21.2315 11.4166C21.4181 11.4519 21.6535 11.4918 21.9369 11.536L21.998 11.1436C22.0319 10.9593 22.0488 10.6571 22.0488 10.2445C22.0488 10.0358 22.1827 9.85342 22.4478 9.70302L22.477 9.68891C22.9094 9.51783 23.2713 9.43417 23.5833 9.43417C23.926 9.43417 24.1384 9.64003 24.1384 9.97185C24.1384 10.1204 24.0595 10.3178 23.8719 10.6364C23.792 10.7643 23.6576 11.0684 23.4348 11.7527C23.6896 11.7875 23.9617 11.8241 24.2503 11.8622C24.5656 11.889 24.7833 11.9021 24.9022 11.9021C24.959 11.9021 25.0949 11.8885 25.3007 11.8636C25.4332 11.8388 25.5674 11.8239 25.7021 11.819C26.0635 11.819 26.1914 12.0455 26.1914 12.2401C26.1914 12.4013 26.088 12.6057 25.5747 13.087C25.2034 13.4038 24.9149 13.5514 24.6662 13.5514C24.5323 13.5514 24.3711 13.4954 24.1864 13.3888C23.8765 13.2629 23.5606 13.1524 23.2398 13.0579L23.0725 13.0076V13.0029L23.056 12.9977C22.9996 13.1937 22.9394 13.4057 22.876 13.6336C22.8074 13.9213 22.6955 14.2794 22.4629 14.4636C22.9211 14.5045 23.3643 14.5398 23.7911 14.5685C24.5426 14.5882 24.8998 14.6526 24.8998 14.9656C24.8998 15.2218 24.6592 15.421 24.4599 15.5597C24.207 15.7049 23.7939 15.7754 23.1965 15.7754C22.7256 15.7754 21.9125 15.7275 20.7662 15.633C20.6745 15.9662 20.6275 16.3963 20.6275 16.9123V20.1629C21.2866 20.2158 21.945 20.2775 22.6025 20.348C22.5155 20.2249 22.4539 20.0458 22.4163 19.808C22.4163 19.7417 22.4365 19.5288 22.563 18.6133C22.1329 18.5473 21.7005 18.4973 21.2667 18.4633C20.8785 18.4474 20.7967 18.2753 20.7967 18.1334C20.7967 17.9153 20.9255 17.7184 21.2145 17.5304C21.4961 17.4044 21.74 17.3438 21.9614 17.3438C22.0211 17.3438 22.1588 17.356 22.7261 17.4458H22.7289L22.7331 17.4167C22.7608 17.2554 22.7745 16.9875 22.7745 16.6205C22.7745 16.4113 22.9089 16.229 23.174 16.079L23.2031 16.0649C23.6289 15.8962 24.0012 15.8102 24.3095 15.8102C24.6521 15.8102 24.8646 16.0161 24.8646 16.3479C24.8646 16.4865 24.7894 16.667 24.6094 16.957C24.5473 17.051 24.4491 17.2554 24.2968 17.6761C25.2044 17.8039 25.9103 17.8923 26.4048 17.9398C26.5114 17.9496 26.8367 17.9792 26.8367 18.2533C26.8367 18.5395 26.5382 18.7486 26.2882 18.8939C25.8793 19.0711 25.5912 19.1538 25.3806 19.1538C25.3125 19.1538 25.1809 19.1397 24.7682 19.0316C24.4726 18.9658 24.1859 18.9051 23.9091 18.8502C23.84 19.0753 23.7638 19.3263 23.6825 19.605C23.6144 19.8889 23.5049 20.2414 23.2788 20.4275C24.0811 20.5657 25.3393 20.6437 27.0369 20.6601C27.6051 20.709 27.7245 20.9661 27.7245 21.1738C27.7245 21.4253 27.4731 21.6377 26.8555 21.908C26.3629 22.1228 25.9949 22.2266 25.7298 22.2266C25.6448 22.2266 25.4685 22.2074 24.8594 22.0603C23.3718 21.7383 21.951 21.5357 20.6275 21.4568V22.8296C21.7189 22.9542 22.9188 23.0834 24.2225 23.2155C24.4599 23.2663 24.8185 23.3429 24.8185 23.6211C24.8185 23.9374 24.4491 24.1273 24.1492 24.2472C23.8113 24.4258 23.4668 24.5165 23.1242 24.5165C23.0739 24.5165 22.9662 24.509 22.5898 24.4521C21.8646 24.3609 21.2089 24.2848 20.627 24.2237V24.2641C20.627 25.3686 20.6134 26.2738 20.5829 26.9835C20.5114 27.4107 20.3808 27.9009 20.0066 27.9009C19.7322 27.9009 19.5672 27.6001 19.3515 26.7001C19.1978 25.9439 19.1047 25.0654 19.0737 24.0845C17.6205 23.9769 16.3106 23.9121 15.1746 23.8918C14.9358 23.8843 14.3008 23.8636 14.259 23.3946C14.259 23.1351 14.5109 22.8663 15.1013 22.4959L15.1459 22.4743C15.7348 22.2595 15.8627 22.2417 15.9369 22.2417C16.0521 22.2417 16.3073 22.2581 17.181 22.3996C17.7511 22.4786 18.3748 22.5599 19.0511 22.6431L19.0337 21.3506C17.745 21.2721 16.6532 21.2326 15.7748 21.2326C14.6355 21.2326 13.5587 21.2453 12.5675 21.2707C12.1802 21.2707 11.2731 21.2707 11.2731 20.7358C11.275 20.4101 11.5575 20.1032 12.1638 19.7709ZM17.4574 19.9382C17.6642 19.9575 17.878 19.9763 18.0966 19.9946C18.4077 20.0115 18.7141 20.0294 19.0178 20.0482L18.9891 17.9431C18.8937 18.0507 18.7409 18.1362 18.5816 18.2133C18.1262 18.4408 17.9466 18.4699 17.8414 18.4699C17.7718 18.4699 17.6853 18.4502 17.5814 18.4131C17.4748 18.3867 17.3248 18.3557 17.1326 18.3205C17.2238 18.7721 17.3333 19.2703 17.4588 19.8108L17.4649 19.8639C17.4654 19.8889 17.4628 19.9138 17.4574 19.9382ZM16.9239 15.6405C16.8548 15.9253 16.8398 16.0569 16.8398 16.1166C16.8398 16.3493 16.8638 16.6618 16.9108 17.0454C17.5297 17.1553 18.0815 17.2479 18.5595 17.3217C18.7532 17.3419 18.8942 17.3903 18.9816 17.4655C18.9682 17.0491 18.9127 16.6352 18.8161 16.2299C18.6808 15.8497 18.6808 15.8219 18.6808 15.7759C18.6808 15.6631 18.7104 15.5559 18.771 15.4539L18.3734 15.4154C17.7732 15.3501 17.2539 15.2899 16.8149 15.234C16.8743 15.3296 16.9126 15.4368 16.9272 15.5484L16.9347 15.5949L16.9239 15.6405Z" fill="#F5FF80"/>
<path d="M168.346 33.53V27.35" stroke="#333435" stroke-width="1.645" stroke-miterlimit="10" stroke-linecap="round" stroke-linejoin="round"/>
<path d="M175.579 38.0533H161.112V35.3038C161.112 34.1335 162.062 33.1841 163.232 33.1841H173.455C174.625 33.1841 175.574 34.1335 175.574 35.3038V38.0533H175.579Z" fill="#4E4E4E" stroke="#333435" stroke-width="1.645" stroke-miterlimit="10" stroke-linecap="round" stroke-linejoin="round"/>
<path d="M168.346 60.7919C168.346 63.9409 168.496 65.8773 167.476 67.95" stroke="#333435" stroke-width="1.645" stroke-miterlimit="10" stroke-linecap="round" stroke-linejoin="round"/>
<path d="M165.018 60.7919C165.018 63.7012 164.567 66.1593 162.64 67.95" stroke="#333435" stroke-width="1.645" stroke-miterlimit="10" stroke-linecap="round" stroke-linejoin="round"/>
<path d="M171.673 60.7919V67.95" stroke="#333435" stroke-width="1.645" stroke-miterlimit="10" stroke-linecap="round" stroke-linejoin="round"/>
<path d="M175.579 55.9227H161.112V58.6722C161.112 59.8425 162.062 60.7919 163.232 60.7919H173.455C174.625 60.7919 175.574 59.8425 175.574 58.6722V55.9227H175.579Z" fill="#4E4E4E" stroke="#333435" stroke-width="1.645" stroke-miterlimit="10" stroke-linecap="round" stroke-linejoin="round"/>
<path d="M163.749 38.0533H161.451C158.485 38.0533 157 42.5183 157 46.9786C157 51.4389 158.485 55.9039 161.451 55.9039H163.749C159.797 55.9086 159.797 38.0533 163.749 38.0533Z" fill="#FF6464" stroke="#333435" stroke-width="1.645" stroke-miterlimit="10" stroke-linecap="round" stroke-linejoin="round"/>
<path d="M166.048 38.0533C164.069 38.0533 164.069 55.9086 166.048 55.9086H168.346V38.0533H166.048Z" fill="#FF6464" stroke="#333435" stroke-width="1.645" stroke-miterlimit="10" stroke-linecap="round" stroke-linejoin="round"/>
<path d="M166.047 38.0533H163.749C159.796 38.0533 159.796 55.9086 163.749 55.9086H166.047C164.073 55.9086 164.073 38.0533 166.047 38.0533Z" fill="#FF6464" stroke="#333435" stroke-width="1.645" stroke-miterlimit="10" stroke-linecap="round" stroke-linejoin="round"/>
<path d="M170.644 38.0533H168.346V55.9086H170.644C172.618 55.9086 172.618 38.0533 170.644 38.0533Z" fill="#FF6464" stroke="#333435" stroke-width="1.645" stroke-miterlimit="10" stroke-linecap="round" stroke-linejoin="round"/>
<path d="M175.236 38.0533H172.938C176.89 38.0533 176.89 55.9086 172.938 55.9086H175.236C178.202 55.9086 179.687 51.4436 179.687 46.9833C179.687 42.523 178.202 38.0533 175.236 38.0533Z" fill="#FF6464" stroke="#333435" stroke-width="1.645" stroke-miterlimit="10" stroke-linecap="round" stroke-linejoin="round"/>
<path d="M172.942 38.0533H170.644C172.623 38.0533 172.623 55.9086 170.644 55.9086H172.942C176.895 55.9086 176.895 38.0533 172.942 38.0533Z" fill="#FF6464" stroke="#333435" stroke-width="1.645" stroke-miterlimit="10" stroke-linecap="round" stroke-linejoin="round"/>
<path d="M113.346 15.005V7.82501" stroke="#333435" stroke-width="1.645" stroke-miterlimit="10" stroke-linecap="round" stroke-linejoin="round"/>
<path d="M120.579 18.5783H106.112V15.8288C106.112 14.6585 107.062 13.7091 108.232 13.7091H118.455C119.625 13.7091 120.574 14.6585 120.574 15.8288V18.5783H120.579Z" fill="#4E4E4E" stroke="#333435" stroke-width="1.645" stroke-miterlimit="10" stroke-linecap="round" stroke-linejoin="round"/>
<path d="M113.346 41.3169C113.346 44.4659 113.496 46.4023 112.476 48.475" stroke="#333435" stroke-width="1.645" stroke-miterlimit="10" stroke-linecap="round" stroke-linejoin="round"/>
<path d="M110.018 41.3169C110.018 44.2262 109.567 46.6843 107.64 48.475" stroke="#333435" stroke-width="1.645" stroke-miterlimit="10" stroke-linecap="round" stroke-linejoin="round"/>
<path d="M116.673 41.3169V48.475" stroke="#333435" stroke-width="1.645" stroke-miterlimit="10" stroke-linecap="round" stroke-linejoin="round"/>
<path d="M120.579 36.4477H106.112V39.1972C106.112 40.3675 107.062 41.3169 108.232 41.3169H118.455C119.625 41.3169 120.574 40.3675 120.574 39.1972V36.4477H120.579Z" fill="#4E4E4E" stroke="#333435" stroke-width="1.645" stroke-miterlimit="10" stroke-linecap="round" stroke-linejoin="round"/>
<path d="M108.749 18.5783H106.451C103.485 18.5783 102 23.0433 102 27.5036C102 31.9639 103.485 36.4289 106.451 36.4289H108.749C104.797 36.4336 104.797 18.5783 108.749 18.5783Z" fill="#FF6464" stroke="#333435" stroke-width="1.645" stroke-miterlimit="10" stroke-linecap="round" stroke-linejoin="round"/>
<path d="M111.048 18.5783C109.069 18.5783 109.069 36.4336 111.048 36.4336H113.346V18.5783H111.048Z" fill="#FF6464" stroke="#333435" stroke-width="1.645" stroke-miterlimit="10" stroke-linecap="round" stroke-linejoin="round"/>
<path d="M111.047 18.5783H108.749C104.796 18.5783 104.796 36.4336 108.749 36.4336H111.047C109.073 36.4336 109.073 18.5783 111.047 18.5783Z" fill="#FF6464" stroke="#333435" stroke-width="1.645" stroke-miterlimit="10" stroke-linecap="round" stroke-linejoin="round"/>
<path d="M115.644 18.5783H113.346V36.4336H115.644C117.618 36.4336 117.618 18.5783 115.644 18.5783Z" fill="#FF6464" stroke="#333435" stroke-width="1.645" stroke-miterlimit="10" stroke-linecap="round" stroke-linejoin="round"/>
<path d="M120.236 18.5783H117.938C121.89 18.5783 121.89 36.4336 117.938 36.4336H120.236C123.202 36.4336 124.687 31.9686 124.687 27.5083C124.687 23.048 123.202 18.5783 120.236 18.5783Z" fill="#FF6464" stroke="#333435" stroke-width="1.645" stroke-miterlimit="10" stroke-linecap="round" stroke-linejoin="round"/>
<path d="M117.942 18.5783H115.644C117.623 18.5783 117.623 36.4336 115.644 36.4336H117.942C121.895 36.4336 121.895 18.5783 117.942 18.5783Z" fill="#FF6464" stroke="#333435" stroke-width="1.645" stroke-miterlimit="10" stroke-linecap="round" stroke-linejoin="round"/>
<path d="M56.3458 35.53V29.35" stroke="#333435" stroke-width="1.645" stroke-miterlimit="10" stroke-linecap="round" stroke-linejoin="round"/>
<path d="M63.5791 40.0533H49.1125V37.3038C49.1125 36.1335 50.0619 35.1841 51.2322 35.1841H61.4547C62.625 35.1841 63.5744 36.1335 63.5744 37.3038V40.0533H63.5791Z" fill="#3E3E3E" stroke="#333435" stroke-width="1.645" stroke-miterlimit="10" stroke-linecap="round" stroke-linejoin="round"/>
<path d="M56.3458 62.7919C56.3458 65.9409 56.4962 67.8773 55.4763 69.95" stroke="#333435" stroke-width="1.645" stroke-miterlimit="10" stroke-linecap="round" stroke-linejoin="round"/>
<path d="M53.0182 62.7919C53.0182 65.7012 52.567 68.1593 50.64 69.95" stroke="#333435" stroke-width="1.645" stroke-miterlimit="10" stroke-linecap="round" stroke-linejoin="round"/>
<path d="M59.6734 62.7919V69.95" stroke="#333435" stroke-width="1.645" stroke-miterlimit="10" stroke-linecap="round" stroke-linejoin="round"/>
<path d="M63.5791 57.9227H49.1125V60.6722C49.1125 61.8425 50.0619 62.7919 51.2322 62.7919H61.4547C62.625 62.7919 63.5744 61.8425 63.5744 60.6722V57.9227H63.5791Z" fill="#3E3E3E" stroke="#333435" stroke-width="1.645" stroke-miterlimit="10" stroke-linecap="round" stroke-linejoin="round"/>
<path d="M51.7492 40.0533H49.4509C46.4852 40.0533 45 44.5183 45 48.9786C45 53.4389 46.4852 57.9039 49.4509 57.9039H51.7492C47.7965 57.9086 47.7965 40.0533 51.7492 40.0533Z" fill="#FF6464" stroke="#333435" stroke-width="1.645" stroke-miterlimit="10" stroke-linecap="round" stroke-linejoin="round"/>
<path d="M54.0475 40.0533C52.0688 40.0533 52.0688 57.9086 54.0475 57.9086H56.3458V40.0533H54.0475Z" fill="#FF6464" stroke="#333435" stroke-width="1.645" stroke-miterlimit="10" stroke-linecap="round" stroke-linejoin="round"/>
<path d="M54.0475 40.0533H51.7492C47.7965 40.0533 47.7965 57.9086 51.7492 57.9086H54.0475C52.0735 57.9086 52.0735 40.0533 54.0475 40.0533Z" fill="#FF6464" stroke="#333435" stroke-width="1.645" stroke-miterlimit="10" stroke-linecap="round" stroke-linejoin="round"/>
<path d="M58.6441 40.0533H56.3458V57.9086H58.6441C60.6181 57.9086 60.6181 40.0533 58.6441 40.0533Z" fill="#FF6464" stroke="#333435" stroke-width="1.645" stroke-miterlimit="10" stroke-linecap="round" stroke-linejoin="round"/>
<path d="M63.236 40.0533H60.9377C64.8904 40.0533 64.8904 57.9086 60.9377 57.9086H63.236C66.2017 57.9086 67.6869 53.4436 67.6869 48.9833C67.6869 44.523 66.2017 40.0533 63.236 40.0533Z" fill="#FF6464" stroke="#333435" stroke-width="1.645" stroke-miterlimit="10" stroke-linecap="round" stroke-linejoin="round"/>
<path d="M60.9424 40.0533H58.6441C60.6228 40.0533 60.6228 57.9086 58.6441 57.9086H60.9424C64.8951 57.9086 64.8951 40.0533 60.9424 40.0533Z" fill="#FF6464" stroke="#333435" stroke-width="1.645" stroke-miterlimit="10" stroke-linecap="round" stroke-linejoin="round"/>
<defs>
<linearGradient id="paint0_linear" x1="111.75" y1="1" x2="111.75" y2="132" gradientUnits="userSpaceOnUse">
<stop stop-color="#FF6464"/>
<stop offset="1" stop-color="#FFA654"/>
</linearGradient>
<linearGradient id="paint1_linear" x1="113.5" y1="7" x2="113" y2="142" gradientUnits="userSpaceOnUse">
<stop stop-color="#FF6464"/>
<stop offset="1" stop-color="#FFA654"/>
</linearGradient>
<radialGradient id="paint2_radial" cx="0" cy="0" r="1" gradientUnits="userSpaceOnUse" gradientTransform="translate(134.562 150.203) rotate(90) scale(8.98438 16.4038)">
<stop stop-color="#FF9264"/>
<stop offset="1" stop-color="#DA5923"/>
</radialGradient>
</defs>
</svg>
