<svg width="35" height="25" viewBox="0 0 35 25" fill="none" xmlns="http://www.w3.org/2000/svg">
<path d="M32.0833 0.249998H2.91667C1.30667 0.251894 0.00189583 1.55666 0 3.16666V21.8333C0.00189583 23.4433 1.30667 24.7481 2.91667 24.75H32.0833C32.247 24.7507 32.4104 24.7364 32.5716 24.7074C33.9752 24.4725 35.0027 23.2564 35 21.8333V3.16666C34.9981 1.55659 33.6933 0.251894 32.0833 0.249998ZM2.91667 23.5833C2.00995 23.5832 1.25344 22.8905 1.17367 21.9873L12.8042 14.383L24.6318 23.5833H2.91667ZM33.8333 21.8333C33.8343 22.6895 33.2141 23.4201 32.3692 23.5582C32.2748 23.5752 32.1791 23.5836 32.0833 23.5833H26.5317L18.8032 17.5686L25.7145 12.0421L33.8333 16.9135V21.8333ZM33.8333 15.5532L25.9671 10.8334C25.758 10.7076 25.4927 10.7254 25.3021 10.8777L17.8547 16.8336L13.1909 13.2064C12.9944 13.0537 12.7227 13.0424 12.5142 13.1784L1.16667 20.5978V3.16666C1.16667 2.20015 1.95016 1.41666 2.91667 1.41666H32.0833C33.0498 1.41666 33.8333 2.20015 33.8333 3.16666V15.5532Z" fill="white"/>
<path d="M17.5 3.75C15.567 3.75 14 5.31698 14 7.25C14.0019 9.18222 15.5678 10.7481 17.5 10.75C19.433 10.75 21 9.18302 21 7.25C21 5.31698 19.433 3.75 17.5 3.75ZM17.5 9.58333C16.2113 9.58333 15.1667 8.53865 15.1667 7.25C15.1667 5.96134 16.2113 4.91666 17.5 4.91666C18.7887 4.91666 19.8333 5.96134 19.8333 7.25C19.8333 8.53865 18.7887 9.58333 17.5 9.58333Z" fill="white"/>
</svg>
