<svg width="20" height="20" viewBox="0 0 20 20" fill="none" xmlns="http://www.w3.org/2000/svg">
<path d="M17.8918 19.0425C17.5928 19.0425 17.2938 18.9275 17.0868 18.6975L13.0158 14.6265C12.5558 14.1665 12.5558 13.4535 13.0158 12.9935C13.4758 12.5335 14.1888 12.5335 14.6488 12.9935L18.7198 17.0645C19.1798 17.5245 19.1798 18.2375 18.7198 18.6975C18.4668 18.9275 18.1908 19.0425 17.8918 19.0425V19.0425Z" fill="white"/>
<path d="M13.4174 13.4173C15.8875 10.9472 15.8874 6.94241 13.4173 4.47238C10.9472 2.00236 6.9424 2.00243 4.47237 4.47254C2.00235 6.94265 2.00242 10.9474 4.47253 13.4174C6.94264 15.8875 10.9474 15.8874 13.4174 13.4173Z" fill="#3E3E3E" fill-opacity="0.05"/>
<path d="M8.94478 16.1905C7.08178 16.1905 5.24178 15.4775 3.81578 14.0745C0.986781 11.2455 0.986781 6.64552 3.81578 3.83952C6.64478 1.01052 11.2448 1.01052 14.0508 3.83952C16.8798 6.66852 16.8798 11.2685 14.0508 14.0745C12.6478 15.4775 10.8078 16.1905 8.94478 16.1905ZM8.94478 3.54052C7.56478 3.54052 6.18478 4.06952 5.12678 5.12752C3.01078 7.24352 3.01078 10.6705 5.12678 12.7635C7.24278 14.8795 10.6698 14.8795 12.7628 12.7635C13.7748 11.7515 14.3498 10.3945 14.3498 8.94552C14.3498 7.49652 13.7978 6.13952 12.7628 5.12752C11.7048 4.06952 10.3248 3.54052 8.94478 3.54052Z" fill="white"/>
</svg>
